<?xml version="1.0" encoding="UTF-8"?>
<svg id="Layer_1" xmlns="http://www.w3.org/2000/svg" version="1.1" viewBox="0 0 1464.13 425">
  <!-- Generator: Adobe Illustrator 29.5.0, SVG Export Plug-In . SVG Version: 2.1.0 Build 137)  -->
  <defs>
    <style>
      .st0 {
        fill: #0b368b;
      }
    </style>
  </defs>
  <g>
    <path class="st0" d="M597.96,148.21c0-26.09-6.94-35.19-28.25-37.83v-.72c6.7-1.2,10.77-2.87,15.56-6.7,6.7-5.51,9.34-13.41,9.34-28.73,0-18.91-5.03-30.64-15.8-36.63-6.7-3.83-16.28-5.51-31.84-5.51h-82.83v159.68h85.23c36.39,0,48.6-11.01,48.6-43.57ZM501,62.51h38.78c14.84,0,18.19,2.87,18.19,16.52,0,8.86-1.68,13.65-5.99,16.04-3.11,1.92-4.31,2.16-18.91,2.39h-32.08v-34.95ZM501,161.38v-37.83h34.95c14.12.24,14.84.24,17.95,1.44,5.51,2.39,7.42,7.18,7.42,18.19,0,15.32-4.55,18.19-29.45,18.19h-30.88Z"/>
    <rect class="st0" x="618.55" y="32.1" width="36.87" height="159.68"/>
    <path class="st0" d="M718.62,114.46c0-11.97-.48-28.73-1.43-50.75h1.43l5.03,12.69c8.86,23.22,11.01,28.49,15.32,38.07l35.19,77.33h42.45l19.79-62.57V32.1h-36.63v77.57c0,17,0,19.15.96,37.11l.48,12.45h-1.44l-5.51-13.17c-8.86-22.27-9.34-23.46-16.76-39.98l-33.28-73.97h-61.77v159.68h36.15v-77.33Z"/>
    <path class="st0" d="M1136.97,80.46c0-23.7-5.51-35.91-19.63-42.85-7.42-3.83-18.19-5.51-34.71-5.51h-79.48v159.68h36.87v-47.64h37.35c14.6-.48,21.31,6.7,20.83,22.74v24.9h37.35v-31.84c.24-19.63-9.1-30.16-28.01-31.36v-1.2c24.42-5.51,29.45-13.65,29.45-46.92ZM1078.32,112.78h-38.3v-49.08h38.3c17.72,0,21.07,3.83,21.07,22.98,0,21.31-3.83,26.09-21.07,26.09Z"/>
    <path class="st0" d="M1232.97,68.49c-3.11,5.51-4.55,8.62-10.77,21.07l-3.59,7.18h-.96l-3.35-7.18c-6.46-13.17-8.14-16.52-10.53-21.07l-19.15-36.39h-42.13l56.98,101.51v58.17h36.87v-58.17l58.65-101.51h-42.61l-19.39,36.39Z"/>
    <path class="st0" d="M570.53,232.02h-106.4v159.68h105.68c30.4,0,46.68-7.9,55.54-26.57,5.03-11.01,6.22-24.42,6.22-70.15s-17.96-62.96-61.05-62.96ZM565.98,264.1c2.1,0,4.03.07,5.81.21l-70.79,81.74v-81.95h64.98ZM588.49,350.76c-4.31,6.7-10.77,9.34-23.46,9.34h-44.88l71.18-82.18c2,6.16,2.66,15.57,2.66,32.63,0,24.66-1.2,33.52-5.51,40.22Z"/>
    <rect class="st0" x="653.13" y="232.02" width="36.87" height="159.68"/>
    <rect class="st0" x="872.81" y="232.02" width="36.87" height="159.68"/>
    <path class="st0" d="M1049.97,305.28c-8.14-5.27-17-7.18-42.61-8.62q-25.86-1.68-29.21-2.39c-7.18-1.92-10.06-6.46-10.06-16.28,0-15.32,5.27-18.67,30.17-18.67,22.5,0,26.09,2.87,26.09,21.07h35.19c.24-2.63.24-5.51.24-6.46,0-13.65-2.87-23.22-8.86-30.4-8.14-9.58-21.31-12.69-53.87-12.69-29.69,0-42.61,2.39-52.91,9.58-8.86,6.46-12.93,18.19-12.93,37.35,0,22.74,5.03,34.47,17.48,40.7,8.14,4.07,15.56,5.27,41.66,6.94q28.97,1.92,32.8,5.03c3.11,2.16,4.31,6.46,4.31,13.41,0,8.38-1.68,13.41-5.03,16.04-4.07,3.11-7.66,3.83-22.26,3.83-21.79,0-25.14-.48-28.97-3.59-3.59-3.35-5.03-8.14-5.03-16.76v-2.87h-35.19c0,19.87,1.68,28.25,6.7,35.91,7.9,12.69,21.78,16.52,60.81,16.52,32.08,0,44.77-2.63,54.82-11.97,7.66-7.18,10.53-17.95,10.53-38.54s-3.59-30.4-13.88-37.11Z"/>
    <rect class="st0" x="1084.68" y="232.02" width="36.87" height="159.68"/>
    <path class="st0" d="M1260.17,236.33c-9.34-4.07-19.87-5.51-42.37-5.51-14.6,0-28.01.96-34.47,2.39-12.93,2.63-24.18,9.58-30.4,18.67-7.9,11.25-9.81,24.9-9.81,66.55,0,17.24.48,25.38,1.68,32.56,2.87,16.52,9.34,26.81,22.02,34,10.05,5.75,22.27,7.9,47.4,7.9,14.6,0,27.53-.96,34.47-2.4,14.36-3.11,25.14-10.05,31.36-20.11,6.94-11.73,8.62-22.5,8.62-58.65,0-22.02-.48-32.56-1.92-39.74-3.11-17.96-11.73-29.21-26.57-35.67ZM1247.96,348.61c-3.83,10.05-9.81,12.69-29.69,12.69s-27.29-1.2-31.36-5.99c-5.03-5.99-6.22-12.93-6.22-38.54,0-37.35.96-43.09,7.42-48.84,4.79-4.31,10.29-5.51,27.05-5.51,19.15,0,25.38,1.2,29.45,5.98,5.75,6.7,6.46,11.01,6.46,42.85,0,24.42-.48,30.16-3.11,37.35Z"/>
    <path class="st0" d="M1427.5,232.02v77.57c0,17,0,19.15.96,37.11l.48,12.45h-1.44l-5.51-13.17c-8.86-22.27-9.34-23.46-16.76-39.98l-33.28-73.98h-61.77v159.68h36.15v-77.33c0-11.97-.48-28.73-1.44-50.75h1.44l5.03,12.69c8.86,23.22,11.01,28.49,15.32,38.07l35.19,77.33h62.24v-159.68h-36.63Z"/>
    <path class="st0" d="M880.81,162.82h62.96l9.1,28.97h37.83l-51.23-159.68h-55.3l-50.51,159.68h0l-12.73,40.24h-.17l-17.24,55.02-22.69,71.71c-7.78-29.03-9.48-35.09-14.42-51.08l-23.46-75.65h-37.59l48.12,159.68h56.5l2.01-6.54.82.04,68-222.38ZM912.41,59.87l23.7,75.89h-47.16l23.46-75.89Z"/>
  </g>
  <g>
    <path class="st0" d="M212.5,144.59c-15.57,0-29-10.03-33.41-24.96l-30.34-102.58c-2.08-7.03,1.94-14.42,8.97-16.5,7.04-2.08,14.42,1.94,16.5,8.97l30.34,102.58c1.58,5.35,6.08,5.93,7.94,5.93s6.36-.58,7.94-5.93l30.33-102.58c2.08-7.03,9.47-11.05,16.5-8.97,7.03,2.08,11.05,9.47,8.97,16.5l-30.34,102.58c-4.42,14.93-17.84,24.96-33.41,24.96Z"/>
    <path class="st0" d="M139.92,174.74c-5.68,0-11.41-1.4-16.71-4.28L29.22,119.37c-6.44-3.5-8.83-11.57-5.33-18.01,3.5-6.44,11.57-8.83,18.01-5.33l93.99,51.08c4.91,2.67,8.49-.11,9.81-1.42,1.32-1.32,4.09-4.9,1.42-9.81l-51.08-93.99c-3.5-6.44-1.12-14.51,5.33-18.01,6.44-3.5,14.51-1.12,18.01,5.33l51.08,93.99c7.44,13.68,5.03,30.27-5.98,41.28-6.75,6.75-15.59,10.26-24.57,10.26Z"/>
    <path class="st0" d="M13.28,276.8c-5.73,0-11.02-3.74-12.73-9.52-2.08-7.03,1.94-14.42,8.97-16.5l102.58-30.34c5.35-1.58,5.93-6.08,5.93-7.94s-.58-6.36-5.93-7.94l-102.58-30.34c-7.03-2.08-11.05-9.47-8.97-16.5,2.08-7.03,9.46-11.05,16.5-8.97l102.58,30.34c14.93,4.41,24.96,17.84,24.96,33.41s-10.03,29-24.96,33.41l-102.58,30.34c-1.26.37-2.53.55-3.77.55Z"/>
    <path class="st0" d="M107.69,402.72c-2.14,0-4.32-.52-6.33-1.61-6.44-3.5-8.83-11.57-5.33-18.01l51.08-93.99c2.67-4.91-.1-8.49-1.42-9.81-1.32-1.31-4.9-4.09-9.81-1.42l-93.99,51.08c-6.45,3.5-14.51,1.12-18.01-5.33-3.5-6.44-1.12-14.51,5.33-18.01l93.99-51.08c13.68-7.44,30.27-5.03,41.28,5.97,11.01,11.01,13.41,27.6,5.98,41.28l-51.08,93.99c-2.41,4.43-6.97,6.94-11.68,6.94Z"/>
    <path class="st0" d="M263.51,425c-5.73,0-11.02-3.74-12.73-9.52l-30.34-102.58c-1.58-5.35-6.08-5.93-7.94-5.93s-6.36.58-7.94,5.93l-30.34,102.58c-2.08,7.03-9.47,11.05-16.5,8.97-7.03-2.08-11.05-9.47-8.97-16.5l30.34-102.58c4.41-14.93,17.84-24.96,33.41-24.96,15.57,0,29,10.03,33.41,24.96l30.34,102.58c2.08,7.03-1.94,14.42-8.97,16.5-1.26.37-2.53.55-3.77.55Z"/>
    <path class="st0" d="M317.31,402.72c-4.71,0-9.27-2.51-11.68-6.94l-51.08-93.99c-7.44-13.68-5.03-30.27,5.98-41.28,11.01-11.01,27.6-13.41,41.28-5.97l93.99,51.08c6.44,3.5,8.83,11.57,5.33,18.01-3.5,6.45-11.57,8.83-18.01,5.33l-93.99-51.08c-4.91-2.67-8.49.11-9.81,1.42-1.32,1.32-4.09,4.9-1.42,9.81l51.08,93.99c3.5,6.44,1.12,14.51-5.33,18.01-2.01,1.1-4.19,1.61-6.33,1.61Z"/>
    <path class="st0" d="M411.72,276.8c-1.25,0-2.51-.18-3.77-.55l-102.58-30.34c-14.93-4.41-24.96-17.84-24.96-33.41s10.03-29,24.96-33.41l102.58-30.34c7.04-2.08,14.42,1.94,16.5,8.97,2.08,7.03-1.94,14.42-8.97,16.5l-102.58,30.34c-5.35,1.58-5.93,6.08-5.93,7.94s.58,6.36,5.93,7.94l102.58,30.34c7.03,2.08,11.05,9.47,8.97,16.5-1.71,5.78-7,9.52-12.73,9.52Z"/>
    <path class="st0" d="M285.08,174.74c-8.98,0-17.82-3.51-24.57-10.26-11.01-11.01-13.41-27.6-5.98-41.28l51.08-93.99c3.5-6.45,11.57-8.83,18.01-5.33,6.44,3.5,8.83,11.57,5.33,18.01l-51.08,93.99c-2.67,4.91.1,8.49,1.42,9.81,1.31,1.31,4.9,4.09,9.81,1.42l93.99-51.08c6.44-3.5,14.51-1.12,18.01,5.33,3.5,6.44,1.12,14.51-5.33,18.01l-93.99,51.08c-5.3,2.88-11.03,4.28-16.71,4.28Z"/>
  </g>
</svg>