<?xml version="1.0" encoding="UTF-8"?>
<svg id="Layer_1" xmlns="http://www.w3.org/2000/svg" version="1.1" viewBox="0 0 425 425">
  <!-- Generator: Adobe Illustrator 29.5.0, SVG Export Plug-In . SVG Version: 2.1.0 Build 137)  -->
  <defs>
    <style>
      .st0 {
        fill: #0062ff;
      }

      .st1 {
        fill: #fff;
      }

      .st2 {
        fill: #0b368b;
      }
    </style>
  </defs>
  <g>
    <path class="st1" d="M212.5,144.59c-15.57,0-29-10.03-33.41-24.96l-30.34-102.58c-2.08-7.03,1.94-14.42,8.97-16.5,7.04-2.08,14.42,1.94,16.5,8.97l30.34,102.58c1.58,5.35,6.08,5.93,7.94,5.93s6.36-.58,7.94-5.93l30.33-102.58c2.08-7.03,9.47-11.05,16.5-8.97,7.03,2.08,11.05,9.47,8.97,16.5l-30.34,102.58c-4.42,14.93-17.84,24.96-33.41,24.96Z"/>
    <path class="st1" d="M139.92,174.74c-5.68,0-11.41-1.4-16.71-4.28L29.22,119.37c-6.44-3.5-8.83-11.57-5.33-18.01,3.5-6.44,11.57-8.83,18.01-5.33l93.99,51.08c4.91,2.67,8.49-.11,9.81-1.42,1.32-1.32,4.09-4.9,1.42-9.81l-51.08-93.99c-3.5-6.44-1.12-14.51,5.33-18.01,6.44-3.5,14.51-1.12,18.01,5.33l51.08,93.99c7.44,13.68,5.03,30.27-5.98,41.28-6.75,6.75-15.59,10.26-24.57,10.26Z"/>
    <path class="st1" d="M13.28,276.8c-5.73,0-11.02-3.74-12.73-9.52-2.08-7.03,1.94-14.42,8.97-16.5l102.58-30.34c5.35-1.58,5.93-6.08,5.93-7.94s-.58-6.36-5.93-7.94l-102.58-30.34c-7.03-2.08-11.05-9.47-8.97-16.5,2.08-7.03,9.46-11.05,16.5-8.97l102.58,30.34c14.93,4.41,24.96,17.84,24.96,33.41s-10.03,29-24.96,33.41l-102.58,30.34c-1.26.37-2.53.55-3.77.55Z"/>
    <path class="st1" d="M107.69,402.72c-2.14,0-4.32-.52-6.33-1.61-6.44-3.5-8.83-11.57-5.33-18.01l51.08-93.99c2.67-4.91-.1-8.49-1.42-9.81-1.32-1.31-4.9-4.09-9.81-1.42l-93.99,51.08c-6.45,3.5-14.51,1.12-18.01-5.33-3.5-6.44-1.12-14.51,5.33-18.01l93.99-51.08c13.68-7.44,30.27-5.03,41.28,5.97,11.01,11.01,13.41,27.6,5.98,41.28l-51.08,93.99c-2.41,4.43-6.97,6.94-11.68,6.94Z"/>
    <path class="st1" d="M263.51,425c-5.73,0-11.02-3.74-12.73-9.52l-30.34-102.58c-1.58-5.35-6.08-5.93-7.94-5.93s-6.36.58-7.94,5.93l-30.34,102.58c-2.08,7.03-9.47,11.05-16.5,8.97-7.03-2.08-11.05-9.47-8.97-16.5l30.34-102.58c4.41-14.93,17.84-24.96,33.41-24.96,15.57,0,29,10.03,33.41,24.96l30.34,102.58c2.08,7.03-1.94,14.42-8.97,16.5-1.26.37-2.53.55-3.77.55Z"/>
    <path class="st1" d="M317.31,402.72c-4.71,0-9.27-2.51-11.68-6.94l-51.08-93.99c-7.44-13.68-5.03-30.27,5.98-41.28,11.01-11.01,27.6-13.41,41.28-5.97l93.99,51.08c6.44,3.5,8.83,11.57,5.33,18.01-3.5,6.45-11.57,8.83-18.01,5.33l-93.99-51.08c-4.91-2.67-8.49.11-9.81,1.42-1.32,1.32-4.09,4.9-1.42,9.81l51.08,93.99c3.5,6.44,1.12,14.51-5.33,18.01-2.01,1.1-4.19,1.61-6.33,1.61Z"/>
    <path class="st1" d="M411.72,276.8c-1.25,0-2.51-.18-3.77-.55l-102.58-30.34c-14.93-4.41-24.96-17.84-24.96-33.41s10.03-29,24.96-33.41l102.58-30.34c7.04-2.08,14.42,1.94,16.5,8.97,2.08,7.03-1.94,14.42-8.97,16.5l-102.58,30.34c-5.35,1.58-5.93,6.08-5.93,7.94s.58,6.36,5.93,7.94l102.58,30.34c7.03,2.08,11.05,9.47,8.97,16.5-1.71,5.78-7,9.52-12.73,9.52Z"/>
    <path class="st1" d="M285.08,174.74c-8.98,0-17.82-3.51-24.57-10.26-11.01-11.01-13.41-27.6-5.98-41.28l51.08-93.99c3.5-6.45,11.57-8.83,18.01-5.33,6.44,3.5,8.83,11.57,5.33,18.01l-51.08,93.99c-2.67,4.91.1,8.49,1.42,9.81,1.31,1.31,4.9,4.09,9.81,1.42l93.99-51.08c6.44-3.5,14.51-1.12,18.01,5.33,3.5,6.44,1.12,14.51-5.33,18.01l-93.99,51.08c-5.3,2.88-11.03,4.28-16.71,4.28Z"/>
  </g>
  <rect class="st2" x="-227.93" y="-1110.65" width="251.07" height="251.07"/>
  <rect class="st0" x="70.43" y="-1110.65" width="251.07" height="251.07"/>
</svg>