<?xml version="1.0" encoding="UTF-8"?>
<svg id="Layer_1" xmlns="http://www.w3.org/2000/svg" version="1.1" viewBox="0 0 1000 360.8">
  <!-- Generator: Adobe Illustrator 29.5.0, SVG Export Plug-In . SVG Version: 2.1.0 Build 137)  -->
  <defs>
    <style>
      .st0 {
        fill: #0062ff;
      }

      .st1 {
        fill: #fff;
      }

      .st2 {
        fill: #0b368b;
      }
    </style>
  </defs>
  <g>
    <path class="st1" d="M133.82,116.11c0-26.09-6.94-35.19-28.25-37.83v-.72c6.7-1.2,10.77-2.87,15.56-6.7,6.7-5.51,9.34-13.41,9.34-28.73,0-18.91-5.03-30.64-15.8-36.63-6.7-3.83-16.28-5.51-31.84-5.51H0v159.68h85.23c36.39,0,48.6-11.01,48.6-43.57ZM36.87,30.4h38.78c14.84,0,18.19,2.87,18.19,16.52,0,8.86-1.68,13.65-5.99,16.04-3.11,1.92-4.31,2.16-18.91,2.39h-32.08V30.4ZM36.87,129.28v-37.83h34.95c14.12.24,14.84.24,17.95,1.44,5.51,2.39,7.42,7.18,7.42,18.19,0,15.32-4.55,18.19-29.45,18.19h-30.88Z"/>
    <rect class="st1" x="154.41" width="36.87" height="159.68"/>
    <path class="st1" d="M254.48,82.35c0-11.97-.48-28.73-1.43-50.75h1.43l5.03,12.69c8.86,23.22,11.01,28.49,15.32,38.07l35.19,77.33h42.45l19.79-62.57V0h-36.63v77.57c0,17,0,19.15.96,37.11l.48,12.45h-1.44l-5.51-13.17c-8.86-22.27-9.34-23.46-16.76-39.98L280.1,0h-61.77v159.68h36.15v-77.33Z"/>
    <path class="st1" d="M672.84,48.36c0-23.7-5.51-35.91-19.63-42.85-7.42-3.83-18.19-5.51-34.71-5.51h-79.48v159.68h36.87v-47.64h37.35c14.6-.48,21.31,6.7,20.83,22.74v24.9h37.35v-31.84c.24-19.63-9.1-30.16-28.01-31.36v-1.2c24.42-5.51,29.45-13.65,29.45-46.92ZM614.18,80.68h-38.3V31.6h38.3c17.72,0,21.07,3.83,21.07,22.98,0,21.31-3.83,26.09-21.07,26.09Z"/>
    <path class="st1" d="M768.84,36.39c-3.11,5.51-4.55,8.62-10.77,21.07l-3.59,7.18h-.96l-3.35-7.18c-6.46-13.17-8.14-16.52-10.53-21.07L720.48,0h-42.13l56.98,101.51v58.17h36.87v-58.17L830.84,0h-42.61l-19.39,36.39Z"/>
    <path class="st1" d="M106.4,199.92H0v159.68h105.68c30.4,0,46.68-7.9,55.54-26.57,5.03-11.01,6.22-24.42,6.22-70.15s-17.96-62.96-61.05-62.96ZM101.85,232c2.1,0,4.03.07,5.81.21l-70.79,81.74v-81.95h64.98ZM124.35,318.66c-4.31,6.7-10.77,9.34-23.46,9.34h-44.88l71.18-82.18c2,6.16,2.66,15.57,2.66,32.63,0,24.66-1.2,33.52-5.51,40.22Z"/>
    <rect class="st1" x="188.99" y="199.92" width="36.87" height="159.68"/>
    <rect class="st1" x="408.68" y="199.92" width="36.87" height="159.68"/>
    <path class="st1" d="M585.84,273.17c-8.14-5.27-17-7.18-42.61-8.62q-25.86-1.68-29.21-2.39c-7.18-1.92-10.06-6.46-10.06-16.28,0-15.32,5.27-18.67,30.17-18.67,22.5,0,26.09,2.87,26.09,21.07h35.19c.24-2.63.24-5.51.24-6.46,0-13.65-2.87-23.22-8.86-30.4-8.14-9.58-21.31-12.69-53.87-12.69-29.69,0-42.61,2.39-52.91,9.58-8.86,6.46-12.93,18.19-12.93,37.35,0,22.74,5.03,34.47,17.48,40.7,8.14,4.07,15.56,5.27,41.66,6.94q28.97,1.92,32.8,5.03c3.11,2.16,4.31,6.46,4.31,13.41,0,8.38-1.68,13.41-5.03,16.04-4.07,3.11-7.66,3.83-22.26,3.83-21.79,0-25.14-.48-28.97-3.59-3.59-3.35-5.03-8.14-5.03-16.76v-2.87h-35.19c0,19.87,1.68,28.25,6.7,35.91,7.9,12.69,21.78,16.52,60.81,16.52,32.08,0,44.77-2.63,54.82-11.97,7.66-7.18,10.53-17.95,10.53-38.54s-3.59-30.4-13.88-37.11Z"/>
    <rect class="st1" x="620.55" y="199.92" width="36.87" height="159.68"/>
    <path class="st1" d="M796.03,204.23c-9.34-4.07-19.87-5.51-42.37-5.51-14.6,0-28.01.96-34.47,2.39-12.93,2.63-24.18,9.58-30.4,18.67-7.9,11.25-9.81,24.9-9.81,66.55,0,17.24.48,25.38,1.68,32.56,2.87,16.52,9.34,26.81,22.02,34,10.05,5.75,22.27,7.9,47.4,7.9,14.6,0,27.53-.96,34.47-2.4,14.36-3.11,25.14-10.05,31.36-20.11,6.94-11.73,8.62-22.5,8.62-58.65,0-22.02-.48-32.56-1.92-39.74-3.11-17.96-11.73-29.21-26.57-35.67ZM783.82,316.51c-3.83,10.05-9.81,12.69-29.69,12.69s-27.29-1.2-31.36-5.99c-5.03-5.99-6.22-12.93-6.22-38.54,0-37.35.96-43.09,7.42-48.84,4.79-4.31,10.29-5.51,27.05-5.51,19.15,0,25.38,1.2,29.45,5.98,5.75,6.7,6.46,11.01,6.46,42.85,0,24.42-.48,30.16-3.11,37.35Z"/>
    <path class="st1" d="M963.37,199.92v77.57c0,17,0,19.15.96,37.11l.48,12.45h-1.44l-5.51-13.17c-8.86-22.27-9.34-23.46-16.76-39.98l-33.28-73.98h-61.77v159.68h36.15v-77.33c0-11.97-.48-28.73-1.44-50.75h1.44l5.03,12.69c8.86,23.22,11.01,28.49,15.32,38.07l35.19,77.33h62.24v-159.68h-36.63Z"/>
    <path class="st1" d="M416.67,130.71h62.96l9.1,28.97h37.83L475.33,0h-55.3l-50.51,159.68h0l-12.73,40.24h-.17l-17.24,55.02-22.69,71.71c-7.78-29.03-9.48-35.09-14.42-51.08l-23.46-75.65h-37.59l48.12,159.68h56.5l2.01-6.54.82.04,68-222.38ZM448.28,27.77l23.7,75.89h-47.16l23.46-75.89Z"/>
  </g>
  <rect class="st2" x="-692.07" y="-1142.75" width="251.07" height="251.07"/>
  <rect class="st0" x="-393.7" y="-1142.75" width="251.07" height="251.07"/>
</svg>