<?xml version="1.0" encoding="UTF-8"?>
<svg id="Layer_1" xmlns="http://www.w3.org/2000/svg" version="1.1" viewBox="0 0 278.53 278.53">
  <!-- Generator: Adobe Illustrator 29.5.0, SVG Export Plug-In . SVG Version: 2.1.0 Build 137)  -->
  <defs>
    <style>
      .st0 {
        fill: #0b368b;
      }
    </style>
  </defs>
  <path class="st0" d="M94.76,139.27c0,10.2-6.57,19-16.36,21.9l-67.23,19.88c-4.61,1.36-9.45-1.27-10.82-5.88-1.36-4.61,1.27-9.45,5.88-10.82l67.23-19.88c3.51-1.04,3.89-3.98,3.89-5.2,0-1.22-.38-4.17-3.89-5.2L6.24,114.18c-4.61-1.36-7.24-6.2-5.88-10.82,1.36-4.61,6.21-7.24,10.82-5.88l67.23,19.88c9.78,2.89,16.36,11.69,16.36,21.9Z"/>
  <path class="st0" d="M114.52,186.83c0,3.72-.92,7.48-2.81,10.95l-33.48,61.6c-2.3,4.22-7.58,5.79-11.8,3.49-4.22-2.29-5.79-7.58-3.49-11.8l33.48-61.6c1.75-3.22-.07-5.57-.93-6.43-.86-.86-3.21-2.68-6.43-.93l-61.6,33.48c-4.22,2.3-9.51.73-11.8-3.49-2.3-4.22-.73-9.51,3.49-11.8l61.6-33.48c8.97-4.87,19.84-3.3,27.05,3.92,4.42,4.42,6.72,10.21,6.72,16.1Z"/>
  <path class="st0" d="M181.41,269.83c0,3.76-2.45,7.22-6.24,8.34-4.61,1.36-9.45-1.27-10.82-5.88l-19.88-67.23c-1.04-3.51-3.99-3.89-5.2-3.89s-4.17.38-5.2,3.89l-19.88,67.23c-1.36,4.61-6.21,7.24-10.82,5.88-4.61-1.36-7.24-6.2-5.88-10.81l19.88-67.23c2.89-9.78,11.69-16.36,21.9-16.36,10.2,0,19,6.57,21.9,16.36l19.88,67.23c.24.82.36,1.66.36,2.47Z"/>
  <path class="st0" d="M263.93,207.95c0,1.4-.34,2.83-1.06,4.15-2.3,4.22-7.58,5.79-11.8,3.49l-61.6-33.48c-3.22-1.75-5.57.07-6.43.93-.86.86-2.68,3.21-.93,6.43l33.48,61.6c2.3,4.22.73,9.51-3.49,11.8-4.22,2.3-9.51.73-11.8-3.49l-33.48-61.6c-4.87-8.97-3.3-19.84,3.92-27.05,7.22-7.21,18.09-8.79,27.05-3.92l61.6,33.48c2.9,1.58,4.55,4.57,4.55,7.65Z"/>
  <path class="st0" d="M278.53,105.84c0,3.76-2.45,7.22-6.24,8.34l-67.23,19.88c-3.51,1.04-3.89,3.98-3.89,5.2,0,1.22.38,4.17,3.89,5.2l67.23,19.88c4.61,1.36,7.24,6.2,5.88,10.82-1.36,4.61-6.21,7.24-10.82,5.88l-67.23-19.88c-9.78-2.89-16.36-11.69-16.36-21.9,0-10.2,6.57-19,16.36-21.9l67.23-19.88c4.61-1.36,9.45,1.27,10.82,5.88.24.82.36,1.66.36,2.47Z"/>
  <path class="st0" d="M263.93,70.58c0,3.09-1.65,6.08-4.55,7.65l-61.6,33.48c-8.97,4.87-19.84,3.3-27.05-3.92-7.22-7.22-8.79-18.09-3.92-27.05l33.48-61.6c2.3-4.22,7.58-5.79,11.8-3.49,4.22,2.29,5.79,7.58,3.49,11.8l-33.48,61.6c-1.75,3.22.07,5.57.93,6.43.86.86,3.21,2.68,6.43.93l61.6-33.48c4.22-2.3,9.51-.73,11.8,3.49.72,1.32,1.06,2.75,1.06,4.15Z"/>
  <path class="st0" d="M181.41,8.7c0,.82-.12,1.65-.36,2.47l-19.88,67.23c-2.89,9.78-11.69,16.36-21.9,16.36-10.2,0-19-6.57-21.9-16.36L97.49,11.17c-1.36-4.61,1.27-9.45,5.88-10.81,4.61-1.36,9.45,1.27,10.82,5.88l19.88,67.23c1.04,3.51,3.99,3.89,5.2,3.89s4.17-.38,5.2-3.89L164.35,6.24c1.36-4.61,6.21-7.24,10.82-5.88,3.79,1.12,6.24,4.59,6.24,8.34Z"/>
  <path class="st0" d="M114.52,91.7c0,5.89-2.3,11.68-6.72,16.1-7.22,7.21-18.09,8.79-27.05,3.92l-61.6-33.48c-4.22-2.29-5.79-7.58-3.49-11.8,2.3-4.22,7.58-5.79,11.8-3.49l61.6,33.48c3.22,1.75,5.57-.07,6.43-.93.86-.86,2.68-3.21.93-6.43L62.94,27.46c-2.3-4.22-.73-9.51,3.49-11.8,4.22-2.3,9.51-.73,11.8,3.49l33.48,61.6c1.89,3.47,2.81,7.23,2.81,10.95Z"/>
</svg>