<?xml version="1.0" encoding="UTF-8"?>
<svg id="Layer_1" xmlns="http://www.w3.org/2000/svg" version="1.1" viewBox="0 0 705.09 278.46">
  <!-- Generator: Adobe Illustrator 29.5.0, SVG Export Plug-In . SVG Version: 2.1.0 Build 137)  -->
  <defs>
    <style>
      .st0 {
        fill: #fff;
      }

      .st1 {
        fill: #0b368b;
      }
    </style>
  </defs>
  <g>
    <path class="st1" d="M-522.14,139.4c0,10.2-6.57,19-16.36,21.9l-67.23,19.88c-4.61,1.36-9.45-1.27-10.82-5.88-1.36-4.61,1.27-9.45,5.88-10.82l67.23-19.88c3.51-1.04,3.89-3.98,3.89-5.2,0-1.22-.38-4.17-3.89-5.2l-67.23-19.88c-4.61-1.36-7.24-6.2-5.88-10.82,1.36-4.61,6.21-7.24,10.82-5.88l67.23,19.88c9.78,2.89,16.36,11.69,16.36,21.9Z"/>
    <path class="st1" d="M-502.39,186.97c0,3.72-.92,7.48-2.81,10.95l-33.48,61.6c-2.3,4.22-7.58,5.79-11.8,3.49-4.22-2.29-5.79-7.58-3.49-11.8l33.48-61.6c1.75-3.22-.07-5.57-.93-6.43-.86-.86-3.21-2.68-6.43-.93l-61.6,33.48c-4.22,2.3-9.51.73-11.8-3.49-2.3-4.22-.73-9.51,3.49-11.8l61.6-33.48c8.97-4.87,19.84-3.3,27.05,3.92,4.42,4.42,6.72,10.21,6.72,16.1Z"/>
    <path class="st1" d="M-435.5,269.96c0,3.76-2.45,7.22-6.24,8.34-4.61,1.36-9.45-1.27-10.82-5.88l-19.88-67.23c-1.04-3.51-3.99-3.89-5.2-3.89s-4.17.38-5.2,3.89l-19.88,67.23c-1.36,4.61-6.21,7.24-10.82,5.88-4.61-1.36-7.24-6.2-5.88-10.81l19.88-67.23c2.89-9.78,11.69-16.36,21.9-16.36,10.2,0,19,6.57,21.9,16.36l19.88,67.23c.24.82.36,1.66.36,2.47Z"/>
    <path class="st1" d="M-352.98,208.09c0,1.4-.34,2.83-1.06,4.15-2.3,4.22-7.58,5.79-11.8,3.49l-61.6-33.48c-3.22-1.75-5.57.07-6.43.93-.86.86-2.68,3.21-.93,6.43l33.48,61.6c2.3,4.22.73,9.51-3.49,11.8-4.22,2.3-9.51.73-11.8-3.49l-33.48-61.6c-4.87-8.97-3.3-19.84,3.92-27.05,7.22-7.21,18.09-8.79,27.05-3.92l61.6,33.48c2.9,1.58,4.55,4.57,4.55,7.65Z"/>
    <path class="st1" d="M-338.38,105.97c0,3.76-2.45,7.22-6.24,8.34l-67.23,19.88c-3.51,1.04-3.89,3.98-3.89,5.2,0,1.22.38,4.17,3.89,5.2l67.23,19.88c4.61,1.36,7.24,6.2,5.88,10.82-1.36,4.61-6.21,7.24-10.82,5.88l-67.23-19.88c-9.78-2.89-16.36-11.69-16.36-21.9,0-10.2,6.57-19,16.36-21.9l67.23-19.88c4.61-1.36,9.45,1.27,10.82,5.88.24.82.36,1.66.36,2.47Z"/>
    <path class="st1" d="M-352.98,70.71c0,3.09-1.65,6.08-4.55,7.65l-61.6,33.48c-8.97,4.87-19.84,3.3-27.05-3.92-7.22-7.22-8.79-18.09-3.92-27.05l33.48-61.6c2.3-4.22,7.58-5.79,11.8-3.49,4.22,2.29,5.79,7.58,3.49,11.8l-33.48,61.6c-1.75,3.22.07,5.57.93,6.43.86.86,3.21,2.68,6.43.93l61.6-33.48c4.22-2.3,9.51-.73,11.8,3.49.72,1.32,1.06,2.75,1.06,4.15Z"/>
    <path class="st1" d="M-435.5,8.84c0,.82-.12,1.65-.36,2.47l-19.88,67.23c-2.89,9.78-11.69,16.36-21.9,16.36-10.2,0-19-6.57-21.9-16.36l-19.88-67.23c-1.36-4.61,1.27-9.45,5.88-10.81,4.61-1.36,9.45,1.27,10.82,5.88l19.88,67.23c1.04,3.51,3.99,3.89,5.2,3.89s4.17-.38,5.2-3.89l19.88-67.23c1.36-4.61,6.21-7.24,10.82-5.88,3.79,1.12,6.24,4.59,6.24,8.34Z"/>
    <path class="st1" d="M-502.39,91.83c0,5.89-2.3,11.68-6.72,16.1-7.22,7.21-18.09,8.79-27.05,3.92l-61.6-33.48c-4.22-2.29-5.79-7.58-3.49-11.8,2.3-4.22,7.58-5.79,11.8-3.49l61.6,33.48c3.22,1.75,5.57-.07,6.43-.93.86-.86,2.68-3.21.93-6.43l-33.48-61.6c-2.3-4.22-.73-9.51,3.49-11.8,4.22-2.3,9.51-.73,11.8,3.49l33.48,61.6c1.89,3.47,2.81,7.23,2.81,10.95Z"/>
  </g>
  <g>
    <path class="st0" d="M0,0h58.51c12.63,0,19.03,1.07,24.01,3.73,7.82,4.45,11.38,12.98,11.38,27.39,0,16.36-4.62,23.3-17.43,26.14v.53c15.47,2.49,20.27,9.25,20.27,28.27,0,24.01-9.07,32.54-35.03,32.54H0V0ZM50.33,49.79c9.6,0,12.98-.53,15.83-2.13,3.73-2.13,5.16-6.05,5.16-14.23,0-7.65-1.6-11.38-5.33-13.34-2.13-.89-4.62-1.24-11.03-1.24H22.76s0,30.94,0,30.94h27.56ZM47.48,99.76c23.65,0,26.67-1.78,26.67-16,0-9.42-1.6-13.52-6.22-15.65-2.67-1.24-5.51-1.42-16.36-1.42h-28.81s0,33.08,0,33.08h24.72Z"/>
    <path class="st0" d="M135.86,118.61h-22.76V0h22.76v118.61Z"/>
    <g>
      <path class="st0" d="M380.41,0h58.33c28.63,0,38.41,8.89,38.41,35.39,0,23.65-4.09,30.05-21.34,33.43v.89c13.52.71,20.27,8.71,20.09,23.12v25.79h-22.94v-21.34c.36-12.98-5.16-18.49-17.78-18.14h-32.01s0,39.48,0,39.48h-22.76V0ZM435,59.75c7.11,0,11.74-1.07,14.4-3.56,3.73-3.02,4.62-6.58,4.62-16.72,0-16.72-2.84-19.92-17.43-19.92h-33.43s0,40.19,0,40.19h31.83Z"/>
      <path class="st0" d="M547.03,73.27v45.35h-22.76v-45.35S481.59,0,481.59,0h25.96s17.96,31.3,17.96,31.3c1.42,2.49,2.85,5.16,7.65,14.4l2.49,4.8h.53s2.67-4.8,2.67-4.8c4.45-8.89,5.87-11.2,7.65-14.4L564.64,0h26.32s-43.92,73.27-43.92,73.27Z"/>
    </g>
    <path class="st0" d="M0,158.79h58.51c16.36,0,26.67,3.2,33.43,10.14,8.54,8.71,11.38,18.85,11.38,39.48,0,32.01-1.07,41.79-4.98,50.15-6.58,12.98-18.49,18.85-39.12,18.85H0v-118.61ZM54.77,257.84c10.85,0,16.89-2.13,20.45-7.11,3.91-5.51,4.98-12.63,4.98-32.9,0-20.63-.89-27.39-4.62-32.54-3.38-4.8-8.89-6.76-19.38-6.76H22.76s0,79.31,0,79.31h32.01Z"/>
    <path class="st0" d="M141.37,277.4h-22.76v-118.61h22.76v118.61Z"/>
    <g>
      <path class="st0" d="M305.33,277.4h-22.76v-118.61h22.76v118.61Z"/>
      <path class="st0" d="M392.11,193.46v-2.13c0-12.98-3.73-15.65-22.05-15.65-21.52,0-25.79,2.67-25.79,16.18,0,8.54,2.13,12.45,7.82,14.23,3.02.89,4.09.89,22.58,1.96,19.92,1.24,26.67,2.49,32.36,6.58,7.29,4.98,9.78,11.91,9.78,27.03,0,14.76-2.13,22.76-7.29,27.92-7.11,6.94-16.18,8.89-40.9,8.89-21.52,0-28.81-1.24-36.63-5.87-4.45-2.67-8.18-8.36-9.42-14.58-1.07-5.16-1.24-8.71-1.42-18.14h21.87c0,8.89.53,11.91,2.49,14.94,2.85,4.8,5.69,5.33,24.18,5.33,13.34,0,17.07-.53,20.45-3.2,3.02-2.13,4.27-6.76,4.27-14.94,0-7.82-1.78-11.56-6.58-13.16q-2.85-1.07-22.58-2.31c-20.27-1.24-24.54-1.96-30.59-4.8-9.42-4.62-13.16-13.16-13.16-29.52,0-14.05,3.02-22.76,9.43-27.39,7.29-5.51,16.54-7.11,38.59-7.11,22.23,0,31.83,2.31,37.7,8.89,4.62,5.16,6.76,12.27,6.76,22.58v4.27h-21.87Z"/>
      <path class="st0" d="M455.42,277.4h-22.76v-118.61h22.76v118.61Z"/>
      <path class="st0" d="M557.85,161.63c10.67,4.8,16.72,13.34,19.03,27.21.89,5.34,1.24,12.27,1.24,28.1,0,28.45-1.07,36.28-6.05,45.17-4.27,7.47-12.09,12.63-22.76,14.76-4.8,1.07-14.23,1.6-25.79,1.6-17.6,0-26.5-1.42-33.79-5.34-9.43-5.16-14.23-12.8-16.36-25.96-.89-5.51-1.07-11.2-1.07-25.96,0-30.59,1.24-39.3,6.76-48.01,4.45-6.94,12.27-11.91,22.05-13.87,4.62-1.07,14.4-1.6,25.07-1.6,16.89,0,24.72,1.07,31.65,3.91ZM495.43,222.98c0,20.81.89,26.14,5.16,31.12,3.38,3.91,8.71,4.8,26.85,4.8,17.43,0,22.23-1.96,25.25-10.49,2.13-5.87,2.31-8.89,2.31-31.12,0-18.67,0-19.21-.89-24.72-1.07-6.94-3.91-11.38-8.36-13.34-3.91-1.6-8.36-1.96-21.7-1.96-14.4,0-19.21.89-22.94,4.62-3.91,3.73-5.51,9.96-5.69,21.7v19.38Z"/>
      <path class="st0" d="M705.09,277.4h-38.23s-33.96-65.09-33.96-65.09c-2.13-4.45-4.45-9.25-11.56-25.61l-3.91-8.36h-.71s.18,7.65.18,7.65c.53,11.38.53,12.27.53,23.3v68.11h-22.41v-118.61h38.06s30.94,60.11,30.94,60.11c4.45,8.89,5.87,11.91,13.87,28.99l4.62,9.78h.71s-.18-7.65-.18-7.65c-.53-11.03-.53-11.91-.53-22.94v-68.29h22.58v118.61Z"/>
    </g>
    <path class="st0" d="M266.74,50.57V0s-22.58,0-22.58,0v68.29c0,11.03,0,11.91.53,22.94l.18,7.65h-.71s-4.62-9.78-4.62-9.78c-8-17.07-9.42-20.09-13.87-28.99L194.72,0h-38.06s0,118.61,0,118.61h22.41s0-68.11,0-68.11c0-11.03,0-11.91-.53-23.3l-.18-7.65h.71s3.91,8.36,3.91,8.36c7.11,16.36,9.43,21.16,11.56,25.61l33.96,65.09h15.59s1.26-3.79,1.26-3.79l21.38-64.25Z"/>
    <path class="st0" d="M329.84,0h-33.61s-29.49,88.6-29.49,88.6l-1.99,5.98h0l-.08.26-7.91,23.78h.02l-2.66,8.01-8.02,24.16-2.66,8.01-2.61,8.01-19.27,59.21c-3.2,9.78-3.91,12.27-9.42,32.19h-.53c-3.38-12.45-7.65-27.21-9.42-32.19l-22.23-67.22h-23.3s37.88,118.61,37.88,118.61h34.5s35.65-110.6,35.65-110.6l2.58-8.01,2.63-8.01,7.92-24.16,2.63-8.01h.15s6.04-18.85,6.04-18.85l1.25-3.91h51.21s7.65,22.76,7.65,22.76h23.3S329.84,0,329.84,0ZM293.21,78.96l20.27-61.53,20.45,61.53h-40.72Z"/>
  </g>
</svg>